{"glyphs":{":":{"x_min":0,"x_max":250,"ha":250,"o":"m 103 407 q 103 434 119 453 q 135 473 162 473 q 182 473 194 461 q 206 449 206 426 q 206 398 190 376 q 174 354 147 354 q 127 354 115 369 q 103 383 103 407 z m 45 44 q 45 71 62 90 q 79 110 103 110 q 125 110 137 97 q 148 84 148 62 q 148 34 132 13 q 116 -9 90 -9 q 69 -9 57 6 q 45 21 45 44 z"},"$":{"x_min":0,"x_max":500,"ha":500,"o":"m 162 -117 l 158 -113 q 169 -65 178 -18 q 81 -15 22 24 l 21 30 q 35 60 43 164 l 48 168 l 65 167 l 69 163 q 69 112 72 81 q 113 32 185 27 l 228 298 q 135 319 107 353 q 79 387 79 439 q 79 511 131 574 q 183 638 285 660 l 293 722 l 298 726 l 326 726 l 330 722 q 324 690 320 662 l 332 663 q 402 663 455 627 l 457 622 q 444 583 431 507 l 427 503 l 411 504 l 407 508 l 408 578 q 367 616 313 618 l 272 363 q 370 346 404 312 q 438 278 438 221 q 438 135 373 66 q 308 -4 211 -16 q 203 -64 197 -113 l 192 -117 z m 279 618 q 216 618 181 573 q 146 528 146 468 q 146 395 239 369 z m 218 26 q 279 26 322 74 q 364 122 364 187 q 364 225 347 252 q 330 278 260 292 z"},"?":{"x_min":0,"x_max":500,"ha":500,"o":"m 218 187 q 175 208 175 250 q 175 282 194 312 q 212 342 264 398 q 300 437 318 460 q 336 482 346 508 q 356 533 356 553 q 356 588 330 613 q 304 638 266 638 q 245 638 222 631 q 199 624 183 604 q 167 584 151 559 l 146 557 l 132 561 l 129 566 q 154 620 168 659 q 221 696 281 696 q 314 696 346 685 q 378 673 398 656 q 417 640 427 615 q 438 590 438 564 q 438 541 429 516 q 421 491 405 468 q 389 444 368 423 q 346 401 295 354 q 242 305 227 285 q 211 265 211 243 q 211 213 239 198 l 238 193 z m 128 44 q 128 71 146 90 q 163 110 187 110 q 209 110 220 97 q 232 84 232 62 q 232 34 216 13 q 200 -9 173 -9 q 152 -9 140 6 q 128 21 128 44 z"},"<":{"x_min":0,"x_max":500,"ha":500,"o":"m 485 60 l 15 287 l 15 331 l 485 558 l 485 501 l 81 309 l 485 116 z"},"'":{"x_min":0,"x_max":333,"ha":333,"o":"m 169 509 l 140 509 l 201 691 q 209 717 221 725 q 233 733 246 733 q 265 733 277 720 q 289 708 289 693 q 289 676 274 656 z"},"=":{"x_min":0,"x_max":500,"ha":500,"o":"m 485 358 l 15 358 l 15 408 l 485 408 z m 485 209 l 15 209 l 15 259 l 485 259 z"},"a":{"x_min":0,"x_max":444,"ha":444,"o":"m 410 96 l 414 83 l 412 77 q 309 -12 272 -12 q 248 -12 248 20 q 248 35 251 58 q 254 81 260 109 l 272 161 l 280 190 l 277 191 q 204 88 141 36 q 78 -16 52 -16 q 18 -16 18 68 q 18 120 34 187 q 50 253 73 310 q 96 366 110 384 q 124 402 156 425 q 188 448 217 460 q 245 472 280 472 q 322 472 370 455 l 401 473 l 412 464 q 411 457 392 391 l 369 308 l 357 260 q 344 208 333 152 q 321 95 321 75 q 321 55 334 55 q 343 55 356 62 q 370 70 406 97 z m 328 407 q 291 424 248 424 q 212 424 184 411 q 174 403 163 383 q 152 363 133 309 q 113 255 101 194 q 89 133 89 97 q 89 70 94 62 q 98 54 107 54 q 125 54 176 102 q 228 149 263 211 q 298 274 321 378 z m 282 502 z m 191 -53 z"},"L":{"x_min":0,"x_max":556,"ha":556,"o":"m 27 -3 l 23 0 l 26 21 l 30 25 q 57 30 62 32 q 66 35 71 42 q 76 48 83 73 q 89 97 115 236 l 145 403 l 162 510 q 178 619 178 634 q 178 647 173 652 q 168 656 153 658 q 138 660 100 661 l 96 666 l 99 686 l 104 690 q 163 686 249 686 q 313 686 350 690 l 354 686 l 352 665 l 348 661 q 288 656 282 654 q 276 652 272 648 q 269 645 266 637 q 259 617 237 499 l 179 155 q 167 81 166 43 q 220 38 267 38 q 329 38 366 39 q 402 41 424 45 q 445 49 450 52 q 456 56 459 62 q 463 69 472 97 l 490 160 l 494 164 l 515 164 l 519 159 q 500 44 496 0 l 492 -3 l 319 -1 l 94 0 q 61 0 27 -3 z"},"3":{"x_min":0,"x_max":500,"ha":500,"o":"m 3 27 l 29 163 l 34 167 l 50 165 l 53 160 q 50 134 50 117 q 50 71 84 44 q 118 17 169 17 q 222 17 261 46 q 301 76 320 125 q 338 175 338 224 q 338 261 322 291 q 306 321 274 336 q 243 351 205 351 q 176 351 126 339 l 122 343 l 139 389 q 177 387 186 387 q 223 387 259 405 q 295 423 316 458 q 337 492 337 531 q 337 570 312 596 q 287 622 241 622 q 199 622 173 605 q 147 588 113 543 l 107 542 l 95 551 l 94 557 l 151 651 q 202 682 267 682 q 336 682 375 646 q 415 609 415 552 q 415 505 387 465 q 360 425 274 382 l 274 379 q 339 370 381 333 q 423 296 423 226 q 423 162 389 107 q 355 51 290 17 q 224 -18 148 -18 q 70 -18 3 27 z"},";":{"x_min":0,"x_max":250,"ha":250,"o":"m 91 407 q 91 437 109 455 q 127 473 150 473 q 171 473 183 460 q 195 448 195 426 q 195 398 179 376 q 163 354 136 354 q 114 354 103 370 q 91 385 91 407 z m -25 -146 l -33 -137 q -10 -112 17 -54 q 44 3 61 89 q 123 104 152 118 l 162 104 q 141 55 92 -21 q 44 -98 9 -133 z"},"J":{"x_min":0,"x_max":333,"ha":333,"o":"m 101 661 l 98 665 l 100 686 l 104 690 q 117 690 148 689 l 249 686 q 292 686 349 690 l 352 686 l 351 665 l 346 661 q 289 659 282 653 q 275 646 257 551 q 239 456 226 370 l 174 38 q 154 -94 105 -151 q 57 -208 6 -208 q -10 -208 -31 -199 l -33 -177 l -29 -173 q -17 -178 -5 -178 q 37 -178 58 -130 q 79 -83 109 114 l 177 556 q 187 623 187 637 q 187 648 174 654 q 161 660 101 661 z"},"V":{"x_min":0,"x_max":658,"ha":658,"o":"m 226 -8 q 222 31 204 160 l 148 543 q 135 632 129 646 q 124 661 58 661 l 54 665 l 56 686 l 60 690 q 109 687 169 687 q 227 687 299 690 l 302 686 l 301 665 l 297 661 l 264 661 q 239 660 229 655 q 219 650 219 632 q 219 594 228 511 q 236 429 289 101 q 456 373 528 501 q 601 629 601 643 q 601 658 562 661 l 513 661 l 509 665 l 511 686 l 516 690 q 552 687 624 687 q 691 687 726 690 l 729 686 l 727 665 l 724 661 q 689 658 678 648 q 667 639 614 553 l 439 270 q 413 227 274 -8 z"},"\"":{"x_min":0,"x_max":500,"ha":500,"o":"m 168 509 l 139 509 l 200 691 q 208 717 220 725 q 232 733 245 733 q 264 733 276 720 q 288 708 288 693 q 288 676 273 656 z m 337 509 l 307 509 l 368 691 q 376 717 388 725 q 400 733 413 733 q 433 733 444 720 q 456 707 456 693 q 456 676 442 656 z"},"7":{"x_min":0,"x_max":500,"ha":500,"o":"m 48 -4 l 42 7 q 66 45 96 91 q 127 136 244 316 l 379 528 q 398 560 419 596 l 185 596 q 151 596 80 590 l 74 595 q 84 637 88 669 l 91 673 q 125 669 225 667 q 324 666 381 666 q 424 666 484 667 l 488 664 l 489 633 q 429 548 308 344 q 188 141 131 0 l 125 -3 q 111 -1 90 -1 q 69 -1 48 -4 z"},"S":{"x_min":0,"x_max":556,"ha":556,"o":"m 52 22 q 69 87 76 165 l 81 169 l 102 169 l 105 166 l 107 72 q 143 43 176 35 q 209 27 238 27 q 326 27 369 77 q 413 127 413 191 q 413 224 399 247 q 386 270 365 281 q 343 292 284 305 q 217 320 185 337 q 152 354 135 386 q 117 419 117 467 q 117 536 156 590 q 194 643 253 672 q 312 700 385 700 q 457 700 507 670 l 509 664 q 498 616 487 537 l 483 533 l 462 533 l 458 537 l 458 608 q 420 653 345 653 q 300 653 264 635 q 229 616 208 580 q 188 544 188 501 q 188 464 203 439 q 218 414 244 402 q 271 390 333 375 q 385 364 407 356 q 429 348 449 330 q 469 312 480 287 q 491 262 491 229 q 491 158 448 102 q 405 46 345 12 q 286 -21 203 -21 q 123 -21 54 17 z"},"}":{"x_min":0,"x_max":333,"ha":333,"o":"m 286 329 l 283 310 q 243 309 221 282 q 199 256 191 207 l 162 35 q 146 -62 80 -86 q 53 -96 20 -96 q 10 -96 -18 -97 l -15 -80 q -2 -78 18 -76 q 36 -75 54 -55 q 77 -31 86 22 l 117 194 q 127 250 147 276 q 172 308 223 320 q 156 338 156 396 q 156 420 162 454 l 191 616 q 194 635 194 655 q 194 676 181 695 q 167 716 146 716 q 137 716 126 717 l 129 733 l 171 733 q 204 733 229 719 q 264 698 264 648 q 264 621 258 588 l 231 433 q 227 411 227 391 q 227 355 248 339 q 260 329 286 329 z"},"Z":{"x_min":0,"x_max":667,"ha":667,"o":"m 38 -4 l 34 0 l 36 21 l 114 117 l 534 647 l 358 647 q 220 647 177 634 q 168 608 152 535 l 147 531 l 129 531 l 125 535 q 135 601 136 686 l 142 690 q 445 686 480 686 q 589 686 646 690 l 649 686 l 648 667 l 615 629 l 172 71 l 149 41 q 352 39 361 39 q 450 39 489 43 q 528 46 555 54 q 562 66 588 161 l 594 165 l 616 165 l 619 161 q 602 66 595 0 l 590 -4 l 337 -1 q 256 0 201 0 q 112 0 38 -4 z"},"x":{"x_min":0,"x_max":500,"ha":500,"o":"m 4 -3 q 16 60 16 80 l 19 84 l 32 86 l 37 83 l 46 58 q 59 50 70 50 q 101 50 132 86 q 164 122 217 209 q 215 226 206 281 q 196 335 185 364 q 174 392 164 400 q 154 408 141 408 q 124 408 112 400 q 99 393 81 374 q 71 364 70 363 l 65 362 l 54 369 l 53 375 l 109 454 q 134 472 167 472 q 207 472 232 439 q 257 407 268 292 l 320 371 q 328 384 355 416 q 382 447 403 460 q 424 473 444 473 q 460 473 475 464 q 463 407 460 383 l 457 379 l 449 377 l 444 379 q 438 390 432 394 q 426 398 415 398 q 390 398 364 376 q 338 354 275 262 q 297 120 314 84 q 330 48 354 48 q 369 48 384 57 q 398 65 427 91 l 433 90 l 440 80 l 439 74 q 408 43 381 22 q 353 0 339 -7 q 325 -15 308 -15 q 284 -15 269 4 q 254 23 244 62 q 234 101 224 176 q 183 106 147 59 q 112 12 90 -2 q 68 -16 44 -16 q 20 -16 4 -3 z"},")":{"x_min":0,"x_max":333,"ha":333,"o":"m 162 725 q 214 651 249 562 q 284 472 284 366 q 284 225 211 106 q 139 -14 32 -103 l 27 -103 l 11 -86 l 11 -81 q 115 29 164 146 q 213 263 213 416 q 213 495 197 563 q 182 631 141 710 l 142 716 l 156 726 z"},"&":{"x_min":0,"x_max":778,"ha":778,"o":"m 714 519 q 736 511 750 491 q 763 472 763 444 q 763 419 753 396 q 743 373 728 358 q 712 344 686 333 q 660 323 637 319 q 614 315 561 309 q 600 298 616 275 q 632 252 632 225 q 632 170 587 117 q 542 63 463 24 q 383 -15 291 -15 q 183 -15 116 35 q 50 86 50 174 q 50 225 71 265 q 92 305 134 332 q 176 360 257 387 q 222 403 208 418 q 193 434 187 452 q 180 471 180 489 q 180 559 259 623 q 338 687 417 687 q 473 687 509 663 l 511 657 l 488 549 l 483 545 l 469 544 l 465 548 l 464 605 q 430 636 376 636 q 323 636 287 604 q 250 571 250 520 q 250 470 285 443 q 319 416 371 416 q 375 416 383 416 l 387 411 l 369 366 q 345 367 331 367 q 275 367 231 348 q 186 329 159 286 q 132 243 132 194 q 132 126 186 79 q 239 31 330 31 q 400 31 452 55 q 504 80 533 119 q 562 159 562 201 q 562 241 538 264 q 514 288 476 288 q 453 288 436 278 q 419 269 413 257 q 406 245 401 222 l 397 208 l 393 205 l 378 207 l 375 211 l 382 307 q 398 329 438 341 q 479 353 561 364 q 624 372 658 381 q 693 390 711 410 q 729 431 729 456 q 729 487 696 501 l 696 508 l 708 518 z"},"_":{"x_min":0,"x_max":500,"ha":500,"o":"m 0 -160 l 0 -102 l 500 -102 l 500 -160 z"},"v":{"x_min":0,"x_max":500,"ha":500,"o":"m 20 345 l 60 458 q 81 465 101 465 q 118 465 163 460 q 203 457 221 457 q 250 457 274 465 l 283 451 q 149 287 149 140 q 149 92 169 63 q 189 34 227 34 q 275 34 317 82 q 360 129 386 205 q 412 281 412 336 q 412 401 369 401 q 357 401 345 395 l 340 396 l 333 406 l 333 412 q 351 425 371 447 l 386 463 q 394 468 405 468 q 438 468 456 442 q 475 417 475 376 q 475 294 425 196 q 375 98 308 40 q 240 -18 188 -18 q 144 -18 111 17 q 78 51 78 110 q 78 179 109 247 q 140 314 227 411 q 216 407 156 407 l 135 408 q 103 408 74 402 q 65 390 41 344 l 36 341 l 23 341 z"},"O":{"x_min":0,"x_max":778,"ha":778,"o":"m 59 265 q 59 334 78 410 q 98 485 150 555 q 203 625 281 664 q 360 703 462 703 q 549 703 612 674 q 675 645 712 584 q 748 523 748 429 q 748 302 688 191 q 627 81 534 31 q 440 -20 334 -20 q 277 -20 226 -3 q 174 14 135 52 q 96 90 77 146 q 59 201 59 265 z m 146 270 q 146 192 169 137 q 191 83 243 53 q 294 23 368 23 q 459 23 523 70 q 586 116 623 218 q 660 320 660 421 q 660 478 647 520 q 635 563 605 597 q 575 631 531 647 q 488 664 436 664 q 350 664 286 621 q 223 579 184 480 q 146 382 146 270 z m 448 721 z m 333 -53 z"},"(":{"x_min":0,"x_max":333,"ha":333,"o":"m 177 -102 q 129 -37 92 56 q 55 148 55 257 q 55 399 128 518 q 201 637 306 726 l 312 726 l 328 709 l 328 704 q 220 589 173 473 q 126 357 126 207 q 126 145 135 94 q 144 43 158 2 q 173 -40 198 -88 l 196 -93 l 183 -103 z"},"C":{"x_min":0,"x_max":667,"ha":667,"o":"m 601 102 l 605 87 l 591 52 q 490 -21 356 -21 q 259 -21 191 16 q 124 53 91 120 q 59 188 59 279 q 59 356 79 422 q 100 488 138 537 q 176 585 228 623 q 281 661 334 681 q 388 701 458 701 q 568 701 660 663 l 662 657 q 647 615 637 520 l 633 516 l 613 516 l 609 520 q 609 584 607 596 q 546 649 432 649 q 386 649 343 638 q 299 626 266 601 q 232 575 206 531 q 180 487 164 429 q 147 371 147 299 q 147 166 212 99 q 277 32 388 32 q 497 32 601 102 z"},"W":{"x_min":0,"x_max":944,"ha":944,"o":"m 548 695 q 561 639 580 567 l 698 129 q 712 161 748 251 l 806 399 q 892 615 892 639 q 892 647 883 654 q 874 660 816 661 l 812 665 l 815 686 l 819 690 q 866 687 929 687 q 980 687 1012 690 l 1015 686 l 1013 665 l 1009 661 q 972 660 963 651 q 954 642 927 576 l 848 388 l 768 191 q 717 65 695 -8 l 646 -8 l 634 54 q 630 77 616 130 l 507 542 q 489 509 398 333 l 296 137 q 250 47 231 -8 l 182 -8 q 181 68 162 240 l 132 518 q 123 605 117 628 q 111 650 103 654 q 95 658 55 661 l 51 665 l 53 686 l 58 690 q 98 688 168 688 q 239 688 279 690 l 283 686 l 281 665 l 276 661 q 227 660 216 654 q 204 647 204 615 q 204 571 234 281 l 250 136 l 392 413 q 487 599 529 695 z"},"A":{"x_min":0,"x_max":722,"ha":722,"o":"m -7 -4 l -10 0 l -7 21 l -2 25 l 26 29 q 38 31 42 34 q 47 36 52 42 q 57 48 74 73 q 91 99 119 143 l 129 159 l 467 693 l 513 693 l 595 104 q 602 54 607 44 q 613 34 624 31 q 634 29 679 25 l 682 21 l 678 0 l 674 -4 q 605 0 556 0 q 523 0 439 -4 l 436 0 l 439 21 l 444 25 q 504 27 513 32 q 521 37 521 53 q 521 57 515 128 l 496 273 l 252 273 l 183 159 q 173 143 152 104 q 131 65 128 57 q 125 49 125 44 q 125 36 134 32 q 144 28 206 25 l 208 21 l 205 0 l 201 -4 q 144 0 94 0 q 53 0 -7 -4 z m 276 311 l 491 311 l 454 595 z m 492 721 z m 334 -53 z"},"f":{"x_min":0,"x_max":278,"ha":278,"o":"m 305 436 l 310 430 q 298 399 293 376 l 289 373 q 266 374 244 374 q 217 374 191 373 l 127 76 q 96 -63 72 -117 q 47 -170 9 -211 q -29 -251 -67 -270 q -90 -281 -113 -281 q -129 -281 -147 -271 q -132 -226 -125 -191 l -112 -188 q -92 -216 -62 -216 q -43 -216 -26 -206 q -9 -195 6 -168 q 21 -141 41 -54 q 61 33 79 141 l 118 373 q 90 374 79 374 q 51 374 42 373 l 39 376 l 42 391 l 45 396 q 104 417 128 433 l 148 528 q 157 572 165 587 q 173 602 196 623 q 218 645 256 674 q 294 703 314 711 q 334 720 355 720 q 386 720 419 707 q 399 652 392 625 l 381 622 q 370 638 351 648 q 332 658 311 658 q 284 658 265 644 q 247 629 236 593 q 225 557 200 426 q 262 427 278 430 q 293 432 305 436 z"},"Q":{"x_min":0,"x_max":778,"ha":778,"o":"m 689 -60 l 706 -60 l 710 -64 q 706 -125 676 -163 q 646 -200 599 -200 q 577 -200 553 -194 q 529 -187 500 -174 q 472 -161 412 -129 q 318 -80 290 -68 q 262 -57 239 -57 q 212 -57 195 -67 q 178 -78 168 -102 q 157 -125 157 -157 l 157 -164 l 153 -168 l 136 -158 l 133 -153 q 133 -145 133 -140 q 133 -89 165 -52 q 196 -14 253 -14 q 258 -14 271 -14 q 167 4 113 77 q 59 150 59 265 q 59 380 106 482 q 153 583 245 643 q 337 703 462 703 q 549 703 612 674 q 675 645 712 584 q 748 523 748 429 q 748 302 688 191 q 627 81 534 31 q 440 -20 335 -20 q 313 -20 291 -18 q 310 -22 347 -39 q 446 -83 518 -111 q 591 -139 622 -139 q 640 -139 651 -132 q 662 -125 671 -110 q 680 -95 685 -64 z m 146 270 q 146 192 169 137 q 191 83 243 53 q 294 23 368 23 q 459 23 523 70 q 586 116 623 218 q 660 320 660 421 q 660 478 647 520 q 635 563 605 597 q 575 631 531 647 q 488 664 436 664 q 350 664 286 621 q 223 579 184 480 q 146 382 146 270 z"},"w":{"x_min":0,"x_max":722,"ha":722,"o":"m 20 341 l 17 345 l 56 458 q 77 465 98 465 q 115 465 160 460 q 199 457 218 457 q 247 457 271 465 l 280 451 q 146 288 146 138 q 146 36 203 36 q 244 36 300 125 q 356 215 395 448 q 431 453 468 467 l 475 461 q 403 228 403 125 q 403 86 419 61 q 436 37 466 37 q 531 37 582 136 q 633 235 633 331 q 633 402 584 402 q 572 402 559 396 l 554 397 l 546 406 l 546 411 q 575 438 597 463 q 611 468 625 468 q 696 468 696 370 q 696 291 650 197 q 604 103 540 43 q 475 -17 421 -17 q 382 -17 360 11 q 338 39 338 81 q 338 124 348 172 l 315 113 q 282 53 241 18 q 200 -17 164 -17 q 123 -17 99 19 q 74 55 74 112 q 74 179 105 246 q 135 314 223 411 q 212 407 152 407 l 131 408 q 99 408 70 402 q 62 390 38 344 l 33 341 z"},"-":{"x_min":0,"x_max":333,"ha":333,"o":"m 19 217 l 39 275 l 305 275 l 284 217 z"},"E":{"x_min":0,"x_max":611,"ha":611,"o":"m 39 -4 l 35 0 l 37 21 l 42 25 q 75 29 81 32 q 84 34 87 37 q 94 47 101 73 q 106 96 138 266 l 177 488 q 198 615 198 638 q 198 647 193 651 q 189 656 172 658 q 155 660 119 661 l 116 665 l 119 686 l 123 690 q 170 686 225 686 q 481 686 564 690 l 568 686 q 567 675 560 625 l 550 541 l 546 537 l 529 537 l 525 541 q 521 615 519 623 q 517 631 510 636 q 503 641 462 644 q 421 648 379 648 q 321 648 284 644 q 265 559 234 375 q 283 374 321 374 q 387 374 483 380 l 487 375 l 468 329 q 354 334 294 334 q 271 334 227 333 l 197 155 q 184 78 180 46 q 248 40 311 40 q 373 40 416 43 q 459 47 469 51 q 478 55 484 65 q 489 75 499 113 q 506 139 511 155 l 516 159 l 536 159 l 540 155 q 533 134 525 79 q 518 24 516 0 l 510 -4 l 170 0 q 85 0 39 -4 z m 355 721 z m 309 -53 z"},"s":{"x_min":0,"x_max":389,"ha":389,"o":"m 12 11 q 29 88 32 135 l 36 139 l 52 139 l 56 135 l 56 57 q 100 19 152 19 q 176 19 198 27 q 220 35 234 48 q 249 62 258 84 q 267 106 267 129 q 267 145 260 159 q 254 174 240 183 q 226 192 182 200 q 138 208 120 213 q 102 218 85 230 q 68 243 58 264 q 48 284 48 308 q 48 341 63 367 q 79 394 109 417 q 139 441 172 457 q 204 472 243 472 q 301 472 340 449 l 342 443 q 334 415 332 392 l 326 337 l 322 333 l 307 333 l 302 337 q 302 366 301 394 q 267 431 208 431 q 163 431 135 405 q 107 378 107 341 q 107 311 125 293 q 144 275 196 268 q 242 261 262 256 q 281 251 298 240 q 314 228 324 210 q 333 191 333 168 q 333 141 323 115 q 312 89 293 67 q 274 45 238 21 q 203 -2 175 -11 q 148 -20 117 -20 q 68 -20 14 6 z"},">":{"x_min":0,"x_max":500,"ha":500,"o":"m 485 287 l 15 60 l 15 116 l 419 309 l 15 501 l 15 558 l 485 331 z"},"l":{"x_min":0,"x_max":278,"ha":278,"o":"m 235 718 l 248 709 q 229 629 168 337 q 125 128 119 87 q 118 79 118 72 q 118 62 123 56 q 127 50 133 50 q 149 50 203 90 l 217 101 l 222 99 l 228 86 l 226 81 q 108 -15 67 -15 q 52 -15 45 -4 q 37 7 37 26 q 37 47 43 78 q 50 110 86 275 q 121 433 135 511 l 152 608 q 155 628 155 639 q 155 650 148 654 q 140 659 121 659 l 80 659 l 76 663 l 78 675 l 82 680 q 173 694 235 718 z"},"8":{"x_min":0,"x_max":500,"ha":500,"o":"m 206 342 q 154 368 130 401 q 107 433 107 477 q 107 555 177 618 q 247 681 327 681 q 387 681 421 647 q 456 612 456 560 q 456 509 426 465 q 396 421 307 367 q 370 336 394 302 q 417 268 417 216 q 417 170 401 126 q 385 83 350 51 q 316 19 271 1 q 226 -17 180 -17 q 138 -17 102 -2 q 67 13 46 48 q 26 83 26 125 q 26 186 67 240 q 108 293 206 342 z m 279 381 q 310 400 334 424 q 358 447 373 479 q 389 512 389 542 q 389 587 362 614 q 335 640 292 640 q 262 640 233 624 q 205 607 188 578 q 172 549 172 512 q 172 466 198 437 q 224 408 279 381 z m 233 326 q 172 300 135 250 q 98 199 98 141 q 98 87 129 56 q 160 24 208 24 q 269 24 306 72 q 343 120 343 185 q 343 230 320 261 q 297 292 233 326 z"},"\\":{"x_min":0,"x_max":606,"ha":606,"o":"m 454 -8 l 451 -13 l 409 -13 l 403 -8 l 158 708 l 161 711 l 203 711 l 208 708 z"},"e":{"x_min":0,"x_max":389,"ha":389,"o":"m 329 104 l 334 92 l 333 86 q 213 -16 130 -16 q 103 -16 74 -1 q 46 14 32 42 q 18 70 18 113 q 18 174 38 243 q 59 312 79 345 q 99 378 140 407 q 180 437 217 454 q 253 472 287 472 q 324 472 348 453 q 371 433 371 398 q 371 359 349 325 q 326 292 267 262 q 207 232 124 213 l 101 208 q 91 161 91 130 q 91 86 111 60 q 130 34 166 34 q 231 34 324 106 z m 104 232 q 156 241 202 261 q 248 281 273 314 q 297 347 297 381 q 297 407 284 420 q 271 433 252 433 q 232 433 204 421 q 177 409 156 378 q 134 347 104 232 z m 238 502 z m 147 -53 z"},"b":{"x_min":0,"x_max":463,"ha":463,"o":"m 211 718 l 224 709 l 190 553 l 140 319 q 205 404 263 439 q 321 474 365 474 q 386 474 398 463 q 410 453 416 428 q 422 403 422 368 q 422 298 398 231 q 375 164 348 124 q 321 84 288 55 q 255 26 212 5 q 170 -16 131 -16 q 89 -16 60 8 q 31 31 31 67 q 31 90 48 179 l 83 354 q 92 408 103 468 l 122 574 q 130 620 131 627 q 132 633 132 639 q 132 650 124 654 q 117 659 97 659 l 56 659 l 53 663 l 54 675 l 58 680 q 149 694 211 718 z m 103 101 q 103 70 120 48 q 137 26 177 26 q 231 26 267 75 q 303 125 327 202 q 351 280 351 333 q 351 386 341 400 q 332 414 311 414 q 278 414 242 392 q 207 370 171 321 q 136 272 119 201 q 103 129 103 101 z"},"%":{"x_min":0,"x_max":889,"ha":889,"o":"m 670 716 l 240 -29 l 234 -33 l 198 -33 l 195 -29 l 625 716 l 630 720 l 667 720 z m 49 509 q 49 554 70 598 q 90 642 135 670 q 180 699 233 699 q 295 699 335 659 q 376 618 376 559 q 376 508 351 462 q 325 416 281 391 q 236 367 193 367 q 152 367 117 388 q 83 410 66 444 q 49 477 49 509 z m 121 491 q 121 437 143 414 q 165 390 193 390 q 241 390 273 451 q 305 513 305 583 q 305 625 287 650 q 270 676 237 676 q 214 676 193 663 q 171 650 154 620 q 136 590 128 553 q 121 517 121 491 z m 496 127 q 496 174 518 218 q 540 262 584 290 q 629 317 680 317 q 740 317 781 278 q 823 238 823 175 q 823 126 797 80 q 772 34 728 10 q 683 -15 641 -15 q 598 -15 563 7 q 528 29 512 62 q 496 96 496 127 z m 568 109 q 568 56 589 32 q 611 8 640 8 q 661 8 679 21 q 698 33 714 58 q 731 83 741 124 q 752 165 752 201 q 752 243 734 268 q 716 294 684 294 q 659 294 638 280 q 616 266 600 237 q 583 207 576 172 q 568 138 568 109 z"},"m":{"x_min":0,"x_max":778,"ha":778,"o":"m 52 -10 l 45 -1 l 73 100 q 88 154 101 218 q 115 281 120 323 q 126 364 126 378 q 126 404 112 404 q 105 404 92 397 q 78 390 41 366 l 35 368 l 30 379 l 32 386 q 147 471 185 471 q 207 471 207 446 q 207 437 204 419 q 201 401 173 271 q 241 367 312 418 q 383 470 428 470 q 452 470 452 448 q 452 427 447 399 q 442 372 418 270 q 488 367 568 418 q 647 470 691 470 q 715 470 715 446 q 715 413 667 233 q 629 97 629 68 q 629 48 644 48 q 651 48 665 55 q 678 61 721 92 l 726 90 l 731 78 l 730 71 q 708 54 670 28 q 631 1 612 -7 q 592 -16 580 -16 q 565 -16 557 -5 q 549 5 549 22 q 549 36 551 48 q 553 59 565 102 q 583 164 606 263 q 629 361 629 389 q 629 398 624 402 q 619 406 613 406 q 601 406 572 391 q 542 375 504 337 q 466 300 442 262 q 418 224 401 167 q 385 109 366 2 q 344 -1 298 -11 l 291 -5 q 330 133 351 240 q 372 346 372 384 q 372 405 357 405 q 343 405 315 389 q 288 374 247 331 q 207 287 182 236 q 158 185 142 112 q 126 40 120 3 q 82 -2 52 -10 z"},"#":{"x_min":0,"x_max":479,"ha":479,"o":"m 84 0 l 117 186 l 45 186 l 57 251 l 129 251 l 167 458 l 94 458 l 106 523 l 178 523 l 208 686 l 244 686 l 214 523 l 325 523 l 354 686 l 391 686 l 362 523 l 434 523 l 422 458 l 350 458 l 313 251 l 385 251 l 373 186 l 301 186 l 268 0 l 231 0 l 265 186 l 154 186 l 120 0 z m 166 251 l 276 251 l 313 458 l 203 458 z"},",":{"x_min":0,"x_max":250,"ha":250,"o":"m -15 -146 l -23 -137 q 0 -112 27 -54 q 54 3 71 89 q 132 104 162 118 l 171 104 q 150 55 102 -21 q 54 -98 19 -133 z"},"n":{"x_min":0,"x_max":556,"ha":556,"o":"m 58 -12 l 51 -4 q 83 93 108 220 q 132 347 132 381 q 132 400 119 400 q 101 400 44 362 l 38 363 l 34 374 l 35 381 q 55 396 82 415 q 109 433 135 448 q 162 462 172 465 q 182 468 189 468 q 203 468 208 459 q 213 449 213 439 q 213 417 197 352 q 192 334 171 245 l 174 244 q 210 303 263 357 q 316 412 372 440 q 428 468 455 468 q 469 468 477 459 q 484 450 484 436 q 484 402 450 272 q 405 98 405 67 q 405 49 418 49 q 434 49 500 96 l 505 95 l 511 82 l 509 76 q 479 52 440 26 q 401 0 383 -7 q 366 -15 354 -15 q 339 -15 332 -5 q 325 6 325 21 q 325 39 333 75 q 340 111 365 208 q 401 346 401 377 q 401 403 382 403 q 369 403 352 395 q 320 380 284 347 q 248 314 218 270 q 188 226 171 182 q 154 138 142 83 q 140 76 126 3 q 93 -2 58 -12 z"},"h":{"x_min":0,"x_max":500,"ha":500,"o":"m 224 718 l 236 709 q 215 622 141 268 l 145 266 q 235 385 306 427 q 377 468 415 468 q 427 468 434 460 q 441 451 441 439 q 441 421 426 361 q 407 285 384 186 q 361 87 361 68 q 361 60 365 56 q 370 52 374 52 q 384 52 405 65 q 425 79 456 102 l 461 100 l 467 87 l 466 82 q 425 49 375 17 q 324 -15 308 -15 q 297 -15 291 -4 q 284 7 284 26 q 284 39 286 46 q 287 54 302 119 l 330 240 q 359 358 359 384 q 359 402 339 402 q 326 402 312 396 q 283 381 239 343 q 205 312 175 270 q 145 228 128 185 q 116 150 105 100 l 87 3 q 27 -9 19 -13 l 13 -6 q 86 273 124 508 l 140 608 q 144 626 144 639 q 144 649 137 654 q 131 659 109 659 l 68 659 l 64 663 l 66 675 l 70 680 q 162 694 224 718 z"},"z":{"x_min":0,"x_max":444,"ha":444,"o":"m 9 -7 l 1 13 l 2 19 l 346 405 q 310 384 262 384 q 235 384 164 394 q 128 399 115 399 q 105 399 94 394 q 76 364 67 340 l 63 336 l 49 336 l 46 340 l 77 457 q 95 466 125 466 q 162 466 221 451 q 271 438 295 434 q 319 430 340 430 q 362 430 374 437 q 386 444 406 466 l 415 458 l 408 427 l 77 56 q 124 78 160 78 q 185 78 238 65 q 285 54 310 54 q 333 54 352 64 l 376 130 l 381 134 l 396 134 l 399 131 l 382 52 l 371 -6 q 345 -16 315 -16 q 294 -16 281 -14 q 269 -12 231 -2 q 179 11 150 16 q 120 21 93 21 q 44 21 14 -8 z"},"B":{"x_min":0,"x_max":611,"ha":611,"o":"m 40 -3 l 36 0 l 38 21 l 42 25 q 69 30 74 32 q 78 35 83 42 q 88 48 95 73 q 101 97 127 236 l 157 403 l 174 510 q 190 619 190 634 q 190 647 185 652 q 180 656 165 658 q 150 660 112 661 l 108 666 l 111 686 l 116 690 q 160 686 247 686 l 370 688 q 472 688 516 654 q 560 620 560 558 q 560 523 546 492 q 533 461 505 434 q 478 407 449 392 q 421 377 380 362 q 446 352 476 340 q 506 328 525 297 q 545 267 545 225 q 545 187 529 150 q 513 113 483 84 q 454 56 411 32 q 368 8 340 2 q 313 -3 263 -3 q 230 -3 166 -1 q 124 0 103 0 q 71 0 40 -3 z m 226 375 q 259 373 279 373 q 327 373 358 382 q 390 392 417 414 q 444 437 460 471 q 477 505 477 544 q 477 600 442 626 q 407 652 347 652 q 313 652 276 646 q 247 510 226 375 z m 174 46 q 220 34 284 34 q 341 34 377 54 q 414 74 435 118 q 456 161 456 211 q 456 252 440 281 q 425 309 391 323 q 357 337 286 337 q 252 337 219 334 l 206 254 l 186 132 q 176 76 174 46 z"},"K":{"x_min":0,"x_max":667,"ha":667,"o":"m 124 686 l 128 690 l 265 686 q 311 686 365 690 l 368 686 l 367 665 l 362 661 q 312 658 304 655 q 295 652 289 631 q 282 609 262 502 l 234 349 q 309 404 407 504 l 524 624 q 542 643 545 652 q 549 661 549 686 l 553 690 q 586 687 618 687 q 641 687 677 690 l 681 686 l 679 665 l 675 661 q 645 661 631 654 q 617 647 583 615 l 316 363 l 534 96 q 571 50 586 40 q 601 29 641 25 l 644 21 l 642 0 l 638 -4 q 602 0 573 0 q 554 0 508 -4 q 392 163 232 337 q 187 78 187 47 q 187 38 197 33 q 207 27 267 25 l 270 21 l 267 0 l 263 -4 l 134 0 q 84 0 26 -4 l 22 0 l 24 21 l 29 25 q 87 26 95 40 q 104 54 129 194 l 161 367 l 190 536 q 203 613 203 637 q 203 646 194 653 q 186 660 125 661 l 121 665 z"},"R":{"x_min":0,"x_max":667,"ha":667,"o":"m 284 644 l 226 325 l 190 117 q 184 75 184 61 q 184 35 218 28 q 220 28 273 25 l 277 21 l 274 0 l 270 -4 q 217 0 140 0 q 79 0 20 -4 l 16 0 l 18 21 l 22 25 q 81 26 89 40 q 97 54 123 194 l 155 367 l 184 536 q 197 613 197 637 q 197 646 188 653 q 179 660 118 661 l 115 665 l 117 686 l 122 690 q 160 686 238 686 l 400 689 q 496 689 539 653 q 583 616 583 557 q 583 485 529 429 q 476 374 375 352 q 383 340 402 310 q 434 258 503 156 q 572 53 591 39 q 610 25 635 25 l 638 21 l 636 0 l 632 -4 q 591 -1 572 -1 q 570 -1 506 -4 q 504 -2 466 62 l 436 113 q 421 138 394 179 l 296 326 l 268 364 l 273 376 l 313 374 q 398 374 447 425 q 496 476 496 541 q 496 652 360 652 q 327 652 284 644 z"},"T":{"x_min":0,"x_max":611,"ha":611,"o":"m 135 -4 l 131 0 l 133 21 l 137 25 q 196 29 206 33 q 217 38 220 42 q 224 47 229 63 q 233 78 253 181 q 274 283 295 414 q 317 544 328 643 q 167 643 146 635 q 125 627 104 530 l 100 526 l 81 526 l 77 530 q 92 654 93 685 l 98 690 l 133 688 q 141 687 167 687 l 371 683 l 616 687 q 621 687 649 690 l 654 685 q 641 637 628 530 l 624 526 l 604 526 l 600 530 q 601 539 602 590 q 601 622 593 633 q 585 643 411 643 q 406 622 390 531 l 358 350 q 352 317 333 197 q 314 78 314 54 q 314 41 324 34 q 334 28 406 25 l 410 21 l 408 0 l 403 -4 q 321 0 271 0 q 198 0 135 -4 z"},"P":{"x_min":0,"x_max":611,"ha":611,"o":"m 20 -4 l 16 0 l 18 21 l 22 25 q 66 27 75 30 q 80 31 82 33 q 84 35 87 39 q 93 48 98 64 q 103 85 123 194 l 155 367 l 184 536 q 197 619 197 637 q 197 650 186 655 q 175 659 118 661 l 115 665 l 117 686 l 122 690 q 160 686 238 686 q 285 686 332 688 q 394 689 414 689 q 516 689 553 646 q 591 603 591 542 q 591 486 564 427 q 536 367 481 327 q 426 288 357 288 q 310 288 269 311 l 269 334 l 274 338 q 306 322 342 322 q 386 322 423 347 q 460 372 482 417 q 503 463 503 516 q 503 589 466 621 q 428 652 360 652 q 328 652 284 644 q 282 630 269 562 q 260 518 247 439 l 226 325 q 218 290 207 220 l 190 117 q 185 84 184 75 q 184 66 184 61 q 184 42 197 35 q 209 28 273 25 l 277 21 l 274 0 l 270 -4 q 217 0 140 0 q 79 0 20 -4 z"},"|":{"x_min":0,"x_max":500,"ha":500,"o":"m 222 0 l 222 733 l 278 733 l 278 0 z"},"t":{"x_min":0,"x_max":333,"ha":333,"o":"m 268 108 l 273 97 l 271 91 q 252 75 205 41 q 158 7 137 -5 q 117 -16 102 -16 q 87 -16 79 -3 q 70 10 70 35 q 70 63 87 138 q 106 224 136 382 l 56 380 l 53 384 l 54 393 l 58 396 q 110 415 142 432 q 151 475 167 601 q 220 623 244 636 l 256 627 l 237 552 q 233 538 211 426 q 233 425 247 425 q 295 425 315 432 l 320 428 l 309 380 q 291 380 202 382 q 148 122 148 76 q 148 53 167 53 q 176 53 191 61 q 207 69 245 97 l 262 110 z"},"M":{"x_min":0,"x_max":944,"ha":944,"o":"m -12 -4 l -16 0 l -14 21 l -9 25 q 33 29 41 34 q 46 36 50 41 q 59 53 74 98 q 105 193 136 302 l 197 521 q 219 604 219 620 q 219 639 201 649 q 184 660 126 661 l 123 665 l 125 686 l 129 690 q 179 688 218 688 q 257 688 292 690 l 441 114 l 671 511 q 714 586 768 690 q 826 686 851 686 q 878 686 931 690 l 934 686 l 932 665 l 928 661 l 896 657 q 872 655 865 651 q 858 646 854 639 q 851 631 848 606 q 845 581 838 515 q 832 449 828 400 l 814 204 q 807 101 807 72 q 807 43 821 35 q 835 28 892 25 l 896 21 l 894 0 l 890 -4 q 843 1 766 1 q 700 1 634 -4 l 631 0 l 632 21 l 637 25 q 703 25 715 38 q 728 51 733 125 l 765 579 q 740 542 627 349 q 515 156 458 48 l 421 -19 l 399 -19 l 250 552 q 121 104 121 56 q 121 43 127 37 q 133 31 146 29 q 159 27 204 25 l 207 21 l 206 0 l 201 -4 l 184 -3 q 118 0 83 0 q 53 0 -12 -4 z"},"g":{"x_min":0,"x_max":500,"ha":500,"o":"m 175 14 q 153 37 153 48 q 153 60 168 79 q 183 99 220 131 q 206 130 197 130 q 139 130 104 160 q 70 191 70 251 q 70 294 87 336 q 104 378 132 405 q 161 432 201 451 q 241 471 289 471 q 373 471 405 416 q 462 417 490 422 l 492 420 l 484 371 q 471 372 458 372 q 441 372 419 370 q 421 354 421 342 q 421 272 376 217 q 331 161 254 140 q 227 114 227 96 q 227 77 241 61 q 256 44 329 -16 q 371 -50 384 -76 q 396 -102 396 -125 q 396 -188 327 -233 q 258 -278 153 -278 q 68 -278 24 -246 q -21 -213 -21 -159 q -21 -127 -3 -96 q 14 -65 62 -35 q 110 -4 175 14 z m 141 270 q 141 220 165 191 q 188 163 233 163 q 292 163 320 216 q 349 269 349 336 q 349 370 339 392 q 329 415 309 427 q 289 440 259 440 q 203 440 172 390 q 141 339 141 270 z m 190 -3 q 149 -14 112 -37 q 75 -61 59 -88 q 43 -116 43 -146 q 43 -195 81 -223 q 120 -250 181 -250 q 223 -250 257 -239 q 292 -227 311 -204 q 331 -182 331 -155 q 331 -138 322 -120 q 314 -103 301 -91 q 289 -79 259 -56 z"},"j":{"x_min":0,"x_max":278,"ha":278,"o":"m 174 636 q 174 662 191 682 q 207 702 230 702 q 248 702 258 691 q 268 681 268 663 q 268 635 252 615 q 237 594 214 594 q 197 594 186 606 q 174 617 174 636 z m -66 -272 l -59 -225 l -50 -220 q -29 -231 -23 -233 q -17 -235 -11 -235 q 15 -235 27 -204 q 39 -174 66 -34 q 69 -15 95 106 q 121 226 132 292 l 146 369 q 147 380 147 385 q 147 402 132 402 q 115 402 54 362 l 49 364 l 43 375 l 45 382 q 118 433 152 451 q 186 469 207 469 q 229 469 229 440 q 229 416 203 300 l 153 80 q 129 -25 105 -103 q 81 -180 54 -219 q 27 -258 8 -269 q -12 -280 -31 -280 q -43 -280 -66 -272 z"},"i":{"x_min":0,"x_max":278,"ha":278,"o":"m 169 636 q 169 662 186 682 q 202 702 226 702 q 242 702 252 691 q 263 681 263 662 q 263 636 248 615 q 232 594 209 594 q 192 594 181 606 q 169 618 169 636 z m 42 364 l 37 375 l 39 381 q 105 429 141 448 q 177 468 197 468 q 217 468 217 439 q 217 426 212 402 q 207 377 188 304 q 134 107 134 71 q 134 51 148 51 q 169 51 224 93 l 229 91 l 234 79 l 233 73 q 199 46 163 22 q 127 -2 112 -9 q 96 -16 86 -16 q 71 -16 63 -3 q 55 10 55 27 q 55 49 61 74 q 67 99 76 130 q 107 243 121 307 q 134 370 134 384 q 134 401 123 401 q 116 401 109 397 q 102 394 47 362 z m 94 -53 z"},"y":{"x_min":0,"x_max":500,"ha":500,"o":"m -6 -185 l 42 -152 l 53 -155 q 52 -163 52 -169 q 52 -204 72 -222 q 93 -240 116 -240 q 135 -240 154 -230 q 173 -221 192 -199 q 210 -177 233 -125 q 256 -73 275 -13 q 293 46 311 111 l 328 172 q 294 122 267 91 q 239 60 212 32 q 185 4 167 -6 q 150 -17 136 -17 q 116 -17 104 8 q 92 33 92 70 q 92 89 99 148 q 111 255 111 334 q 111 375 107 387 q 103 399 92 399 q 81 399 64 388 q 47 377 21 357 l 15 359 l 9 371 l 11 378 q 120 470 154 470 q 169 470 177 457 q 186 444 186 409 q 186 376 181 322 q 166 156 166 101 q 166 81 170 71 q 174 61 185 61 q 192 61 204 66 q 216 72 243 98 q 269 124 295 163 q 322 203 343 250 q 363 297 375 340 q 387 383 403 452 q 437 457 477 471 l 488 461 q 463 412 398 189 q 365 74 343 8 q 320 -58 290 -113 q 260 -167 220 -207 q 180 -247 144 -263 q 109 -280 77 -280 q 42 -280 17 -258 q -8 -236 -8 -201 q -8 -194 -6 -185 z m 282 502 z m 406 -53 z"},"@":{"x_min":0,"x_max":683,"ha":683,"o":"m 559 89 l 562 85 q 557 74 555 62 q 455 -21 318 -21 q 189 -21 106 61 q 23 143 23 269 q 23 413 127 511 q 231 609 381 609 q 502 609 581 544 q 660 478 660 370 q 660 318 643 274 q 625 231 598 196 q 571 161 538 143 q 506 125 473 125 q 443 125 422 141 q 401 157 401 188 q 401 194 402 204 l 396 205 q 375 167 348 149 q 321 130 283 130 q 232 130 208 164 q 183 197 183 255 q 183 340 235 413 q 287 486 368 486 q 389 486 404 481 q 418 476 427 466 q 437 457 444 442 l 451 476 l 502 487 l 508 482 q 495 435 473 332 q 451 229 451 201 q 451 177 462 165 q 473 153 492 153 q 523 153 552 180 q 581 207 600 257 q 619 307 619 369 q 619 480 551 533 q 482 586 384 586 q 305 586 233 545 q 161 504 120 431 q 80 357 80 269 q 80 194 109 134 q 139 74 196 40 q 253 6 333 6 q 400 6 460 30 q 520 54 559 89 z m 250 256 q 250 204 264 182 q 278 160 305 160 q 322 160 335 167 q 349 174 362 191 q 376 207 391 239 q 405 271 417 321 q 428 370 428 398 q 428 427 414 445 q 400 463 374 463 q 323 463 286 393 q 250 323 250 256 z"},".":{"x_min":0,"x_max":250,"ha":250,"o":"m 52 44 q 52 71 69 90 q 86 110 110 110 q 132 110 144 97 q 155 84 155 62 q 155 34 139 13 q 123 -9 97 -9 q 76 -9 64 6 q 52 21 52 44 z"},"p":{"x_min":0,"x_max":500,"ha":500,"o":"m 1 -278 l -5 -272 l 10 -205 q 24 -141 53 15 l 90 219 q 98 268 103 309 l 109 367 q 111 383 111 389 q 111 406 98 406 q 91 406 77 399 q 63 392 15 360 l 9 362 l 4 373 l 6 380 q 53 419 99 445 q 146 472 168 472 q 191 472 191 449 q 191 422 164 288 q 219 379 287 425 q 355 471 403 471 q 425 471 436 459 q 447 447 455 420 q 462 392 462 359 q 462 314 446 257 q 430 199 409 157 q 388 116 360 87 q 333 58 294 34 q 255 11 227 -2 q 198 -15 180 -15 q 167 -15 155 -12 q 144 -9 115 0 l 74 -262 q 21 -269 1 -278 z m 125 55 q 167 31 208 31 q 245 31 271 48 q 298 64 327 123 q 356 181 372 241 q 387 301 387 347 q 387 387 379 401 q 371 415 353 415 q 328 415 298 400 q 268 385 233 346 q 198 307 172 252 q 156 216 143 159 z"},"X":{"x_min":0,"x_max":722,"ha":722,"o":"m 19 -4 l 15 0 l 17 21 l 21 25 q 55 27 64 30 q 74 32 81 38 q 88 43 113 70 q 138 97 179 146 l 341 341 l 226 558 l 200 605 q 187 630 180 638 q 174 646 166 651 q 159 655 148 657 q 137 659 92 661 l 89 665 l 91 686 l 95 690 q 131 688 216 688 q 311 688 351 690 l 354 686 l 353 665 l 349 661 l 309 660 q 290 659 283 654 q 276 648 276 640 q 276 632 282 618 q 289 604 313 557 l 391 402 l 504 544 q 552 605 563 620 q 573 635 573 643 q 573 650 566 655 q 558 659 498 661 l 494 665 l 496 686 l 500 690 q 555 688 619 688 q 672 688 719 690 l 723 686 l 722 665 l 717 661 q 688 660 678 657 q 668 654 657 647 q 647 640 620 610 q 592 581 562 545 l 495 466 l 412 366 l 539 136 l 567 83 q 583 56 589 47 q 596 38 603 34 q 609 31 615 30 q 622 29 671 25 l 675 21 l 673 0 l 668 -4 l 642 -3 q 569 0 538 0 q 501 0 411 -4 l 407 0 l 409 21 l 413 25 q 463 26 478 30 q 492 34 492 46 q 492 51 490 56 q 488 62 469 101 q 450 140 442 154 l 361 305 l 270 192 q 236 151 208 114 q 181 76 175 65 q 170 55 170 50 q 170 44 173 39 q 177 35 183 33 q 189 31 212 29 l 255 25 l 259 21 l 257 0 l 252 -4 q 170 0 110 0 q 57 0 19 -4 z"},"*":{"x_min":0,"x_max":389,"ha":389,"o":"m 104 415 q 98 435 79 471 l 83 478 q 96 483 136 500 q 177 517 209 533 q 188 544 143 566 q 98 587 82 594 l 78 604 q 78 604 93 631 l 110 660 l 120 659 q 169 605 223 555 q 231 601 236 633 q 240 664 245 695 l 254 701 q 286 690 315 684 l 317 675 q 258 570 247 545 q 260 547 385 569 l 391 565 q 392 547 399 507 l 392 502 q 297 516 248 520 q 265 484 281 457 q 312 405 312 401 l 311 395 q 261 371 252 365 l 245 370 q 234 449 223 510 q 186 479 146 440 l 116 413 z"},"Y":{"x_min":0,"x_max":667,"ha":667,"o":"m 179 -4 l 175 0 l 177 21 l 182 25 q 238 28 246 30 q 253 31 257 34 q 261 38 266 50 q 271 62 282 116 q 293 170 298 204 q 302 239 302 251 q 302 293 261 418 q 220 542 188 584 q 157 626 119 626 q 103 626 80 617 l 75 621 l 73 636 l 76 642 q 117 668 150 697 q 177 696 196 687 q 216 677 236 653 q 257 629 280 578 q 303 526 327 447 q 350 367 363 310 q 420 443 515 562 q 610 680 689 689 l 684 619 q 654 614 624 598 q 595 582 559 545 q 523 508 477 439 q 431 370 407 314 q 383 258 374 203 q 350 64 350 51 q 350 37 357 34 q 365 30 397 28 l 436 25 l 439 21 l 437 0 l 433 -4 q 370 0 304 0 q 239 0 179 -4 z m 409 721 z m 299 -53 z"},"c":{"x_min":0,"x_max":407,"ha":407,"o":"m 354 105 l 360 92 l 358 86 q 299 37 250 10 q 200 -17 155 -17 q 95 -17 64 21 q 33 58 33 131 q 33 176 44 227 q 55 277 73 315 q 91 353 111 375 q 130 396 170 421 q 223 455 252 465 q 282 475 309 475 q 356 475 391 451 l 393 445 q 378 387 371 327 l 367 323 l 352 323 l 348 327 l 348 360 q 349 370 349 376 q 349 393 343 401 q 337 410 315 417 q 294 425 267 425 q 216 425 185 398 q 155 372 131 292 q 106 212 106 151 q 106 90 130 62 q 154 35 192 35 q 223 35 256 49 q 290 63 350 107 z"},"!":{"x_min":0,"x_max":333,"ha":333,"o":"m 140 184 l 133 188 q 147 270 165 406 q 183 542 195 673 q 239 683 279 698 l 290 689 q 220 424 169 200 z m 77 44 q 77 71 94 90 q 111 110 135 110 q 157 110 169 97 q 180 84 180 62 q 179 31 166 11 q 154 -8 122 -9 q 101 -9 89 6 q 77 21 77 44 z"},"/":{"x_min":0,"x_max":296,"ha":296,"o":"m 3 -8 l 249 708 l 254 711 l 297 711 l 299 708 l 54 -8 l 49 -13 l 6 -13 z"},"[":{"x_min":0,"x_max":333,"ha":333,"o":"m 22 -106 l 18 -101 q 27 -69 38 -10 l 84 267 q 96 336 129 565 q 143 662 146 717 l 152 722 q 199 719 223 719 q 247 719 321 721 l 325 717 l 323 697 l 319 692 q 239 687 231 684 q 228 683 225 679 q 222 675 219 665 q 207 614 177 424 l 132 135 q 106 -34 106 -48 q 106 -58 114 -64 q 122 -70 150 -73 l 210 -77 l 214 -82 l 210 -102 l 206 -106 q 159 -103 108 -103 q 62 -103 22 -106 z"},"6":{"x_min":0,"x_max":500,"ha":500,"o":"m 440 616 l 432 615 q 402 632 371 632 q 286 632 222 551 q 159 469 124 300 q 164 352 206 378 q 248 404 297 404 q 337 404 369 387 q 401 370 418 335 q 436 301 436 254 q 436 207 420 161 q 405 116 383 87 q 361 59 322 32 q 283 5 256 -6 q 229 -18 196 -18 q 125 -18 83 33 q 40 83 40 182 q 40 273 71 371 q 102 468 164 543 q 226 617 287 649 q 348 682 406 682 q 429 682 456 672 z m 115 163 q 115 95 147 62 q 178 28 224 28 q 266 28 297 57 q 329 85 345 133 q 360 182 360 226 q 360 284 331 316 q 302 349 257 349 q 218 349 182 324 q 147 298 131 256 q 115 214 115 163 z"},"r":{"x_min":0,"x_max":389,"ha":389,"o":"m 58 -15 l 49 -8 q 83 104 106 226 q 129 348 129 382 q 129 404 118 404 q 103 404 37 360 l 31 362 l 26 373 l 27 380 q 71 415 119 443 q 167 472 189 472 q 209 472 209 448 q 209 419 173 259 q 219 338 262 393 q 306 448 325 461 q 344 473 363 473 q 372 473 381 469 l 383 464 q 375 437 366 360 l 353 357 q 338 376 320 376 q 306 376 287 365 q 268 354 239 320 q 211 286 190 242 q 169 199 157 148 q 144 97 125 2 q 75 -9 58 -15 z"},"2":{"x_min":0,"x_max":500,"ha":500,"o":"m 6 -4 l 2 0 l 3 15 q 214 234 277 332 q 340 431 340 510 q 340 537 328 563 q 315 590 288 604 q 260 618 230 618 q 145 618 89 517 l 83 515 l 69 521 l 67 527 l 125 639 q 184 682 257 682 q 329 682 376 640 q 424 599 424 526 q 424 479 406 435 q 387 390 348 341 q 310 292 213 192 l 143 120 q 102 75 96 70 l 98 63 l 293 63 q 365 63 413 72 l 419 65 l 403 0 l 398 -4 q 289 1 208 1 l 82 -1 q 25 -2 6 -4 z"},"{":{"x_min":0,"x_max":333,"ha":333,"o":"m 47 307 l 50 326 q 90 328 112 354 q 134 380 143 430 l 171 601 q 188 699 253 723 q 281 732 313 732 q 323 732 350 733 l 348 716 q 334 715 317 714 q 293 713 279 691 q 256 667 247 614 l 216 442 q 207 387 186 360 q 162 329 111 316 q 177 298 177 241 q 177 216 171 183 l 143 21 q 139 1 139 -19 q 139 -40 152 -59 q 167 -80 187 -80 q 197 -80 207 -81 l 205 -97 l 162 -97 q 129 -97 104 -83 q 69 -62 69 -12 q 69 15 75 48 l 103 204 q 106 226 106 246 q 106 281 86 297 q 74 307 47 307 z"},"9":{"x_min":0,"x_max":500,"ha":500,"o":"m 52 2 q 45 32 32 71 q 24 95 22 101 l 25 105 l 39 110 l 43 108 q 69 62 96 47 q 123 32 156 32 q 239 32 292 120 q 345 208 371 362 q 339 320 299 292 q 259 265 208 265 q 166 265 130 285 q 95 305 77 344 q 60 382 60 429 q 60 471 74 514 q 88 557 117 590 q 145 623 195 653 q 246 683 299 683 q 348 683 383 657 q 418 632 436 588 q 454 544 454 472 q 454 395 440 329 q 426 264 393 194 q 360 124 315 77 q 270 31 223 7 q 176 -16 130 -16 q 86 -16 52 2 z m 136 458 q 136 418 148 386 q 160 353 186 336 q 212 319 244 319 q 298 319 338 363 q 378 407 378 494 q 378 563 348 601 q 317 638 269 638 q 212 638 174 586 q 136 535 136 458 z"}," ":{"x_min":0,"x_max":250,"ha":250,"o":""},"I":{"x_min":0,"x_max":333,"ha":333,"o":"m 256 21 l 254 0 l 250 -4 q 248 -4 218 -3 q 142 0 121 0 q 71 0 13 -4 l 9 0 l 11 21 l 16 25 q 59 27 68 30 q 73 31 75 33 q 78 35 80 39 q 86 48 91 64 q 96 85 116 194 l 148 367 l 177 536 q 190 619 190 637 q 190 650 179 655 q 168 659 111 661 l 108 665 l 110 686 l 115 690 q 117 690 151 689 q 228 686 251 686 q 298 686 352 690 l 355 686 l 354 665 l 349 661 q 298 658 291 655 q 287 653 283 649 q 280 646 276 631 q 264 585 236 435 l 197 205 q 174 65 174 47 q 174 39 179 34 q 184 30 202 28 q 221 26 253 25 z m 238 721 z m 123 -53 z"},"H":{"x_min":0,"x_max":778,"ha":778,"o":"m 227 383 l 459 381 q 537 381 596 383 q 635 599 635 637 q 635 646 626 653 q 617 660 556 661 l 553 665 l 555 686 l 560 690 l 696 686 q 743 686 796 690 l 800 686 l 798 665 l 794 661 q 754 659 742 657 q 729 655 725 643 q 720 631 702 541 q 683 452 669 369 l 637 173 q 619 65 619 46 q 619 38 629 32 q 639 27 698 25 l 701 21 l 699 0 l 694 -4 l 566 0 q 515 0 458 -4 l 454 0 l 456 21 l 460 25 q 485 25 521 34 q 530 41 537 70 q 544 98 562 201 l 588 340 l 395 342 q 376 342 264 340 l 219 339 q 174 78 174 47 q 174 38 184 33 q 194 27 253 25 l 256 21 l 254 0 l 250 -4 l 121 0 q 70 0 13 -4 l 9 0 l 11 21 l 16 25 q 58 27 69 30 q 81 33 88 55 q 95 77 116 193 l 148 368 l 177 537 q 190 615 190 637 q 190 646 181 653 q 172 659 111 661 l 108 665 l 110 686 l 115 690 l 251 686 q 297 686 352 690 l 355 686 l 354 665 l 349 661 q 301 660 290 655 q 279 649 273 621 l 256 536 q 251 514 227 383 z"},"4":{"x_min":0,"x_max":500,"ha":500,"o":"m 99 -4 l 95 0 l 98 21 l 102 25 q 185 30 204 34 q 217 37 224 49 q 230 61 241 115 l 256 189 l 67 189 q 48 189 3 188 l 0 192 l 1 216 q 60 305 181 468 q 292 616 339 673 q 399 687 406 689 l 414 684 l 401 618 q 394 581 384 528 l 334 244 q 436 244 460 248 l 464 241 l 449 190 l 444 186 q 421 188 375 188 q 343 188 325 188 l 314 122 q 307 79 307 61 q 307 36 335 32 q 346 30 384 27 q 403 26 422 24 l 425 20 l 423 0 l 418 -4 q 359 0 259 0 q 209 0 99 -4 z m 266 244 l 330 606 l 326 607 q 268 528 177 406 q 134 343 69 250 l 72 246 q 111 243 176 244 z"},"~":{"x_min":0,"x_max":500,"ha":500,"o":"m 474 346 q 424 252 355 252 q 322 252 252 283 q 183 313 159 313 q 137 313 117 301 q 96 288 62 234 l 35 266 q 73 328 100 346 q 127 365 156 365 q 190 365 260 334 q 329 304 354 304 q 406 304 447 376 z"},"D":{"x_min":0,"x_max":778,"ha":778,"o":"m 40 -3 l 36 0 l 38 21 l 42 25 q 69 30 74 32 q 78 35 83 42 q 88 48 95 73 q 101 97 127 236 l 157 403 l 174 510 q 190 619 190 634 q 190 647 185 652 q 180 656 165 658 q 150 660 112 661 l 108 666 l 111 686 l 116 690 q 163 687 239 687 l 425 689 q 514 689 566 677 q 618 665 659 635 q 699 605 722 553 q 745 500 745 429 q 745 363 725 300 q 706 237 668 182 q 630 127 581 88 q 532 48 492 31 q 452 13 405 4 q 358 -4 296 -4 q 253 -4 199 -2 q 154 0 111 0 q 70 0 40 -3 z m 178 55 q 267 39 350 39 q 423 39 476 67 q 529 96 569 148 q 609 201 632 275 q 654 350 654 419 q 654 467 641 511 q 628 555 593 590 q 559 625 504 636 q 450 648 383 648 q 330 648 277 643 l 241 448 l 200 206 q 182 104 178 55 z"},"^":{"x_min":0,"x_max":500,"ha":500,"o":"m 488 328 l 431 328 l 268 638 l 104 328 l 47 328 l 240 693 l 295 693 z"},"0":{"x_min":0,"x_max":500,"ha":500,"o":"m 41 221 q 41 333 74 450 q 108 567 171 626 q 234 686 310 686 q 360 686 398 660 q 437 634 458 585 q 479 537 479 452 q 479 327 443 214 q 407 102 346 43 q 286 -16 209 -16 q 133 -16 87 44 q 41 103 41 221 z m 115 170 q 115 128 125 91 q 134 54 158 34 q 183 14 216 14 q 256 14 288 44 q 319 75 347 147 q 374 219 389 324 q 404 430 404 508 q 404 559 393 590 q 382 621 358 638 q 334 656 305 656 q 255 656 214 608 q 174 560 145 415 q 115 269 115 170 z"},"F":{"x_min":0,"x_max":556,"ha":556,"o":"m 14 -4 l 11 0 l 12 21 l 17 25 q 76 26 84 40 q 92 54 118 194 l 149 367 l 178 536 q 191 613 191 637 q 191 646 183 653 q 174 660 113 661 l 109 665 l 112 686 l 116 690 q 129 690 152 689 l 248 686 l 545 690 l 550 686 q 538 618 534 540 l 530 536 l 511 536 l 507 540 q 507 612 496 629 q 485 647 347 647 q 311 647 275 644 q 264 599 249 512 l 220 340 l 331 339 q 379 339 474 348 l 479 343 l 458 293 q 326 298 297 298 q 255 298 213 296 q 177 90 177 62 q 174 41 187 35 q 199 30 271 24 l 274 20 l 272 0 l 268 -4 q 167 0 123 0 q 74 0 14 -4 z"},"`":{"x_min":0,"x_max":333,"ha":333,"o":"m 298 548 l 296 543 l 286 535 l 279 537 q 204 606 117 698 l 124 708 l 195 709 q 210 680 298 548 z"},"k":{"x_min":0,"x_max":444,"ha":444,"o":"m 223 718 l 235 709 q 218 639 189 503 l 161 369 q 144 285 129 228 q 167 282 226 349 q 285 415 332 446 q 379 476 414 476 q 427 476 447 468 l 431 400 q 409 407 390 407 q 363 407 337 396 q 312 385 284 363 q 256 341 224 308 q 240 255 268 185 q 296 115 311 86 q 326 58 334 53 q 342 47 348 47 q 362 47 398 70 l 414 79 l 419 78 l 424 66 l 422 60 q 354 9 332 -3 q 310 -15 300 -15 q 295 -15 289 -12 q 284 -9 273 6 q 263 21 245 64 q 226 108 216 135 q 206 163 174 251 q 145 215 136 202 q 128 190 122 177 q 117 163 110 136 q 103 109 97 74 l 85 5 l 19 -13 l 11 -6 l 35 86 q 50 146 79 289 q 109 432 122 507 l 140 609 q 143 628 143 639 q 143 649 136 654 q 130 659 108 659 l 67 659 l 63 663 l 65 675 l 69 680 q 160 694 223 718 z"},"u":{"x_min":0,"x_max":556,"ha":556,"o":"m 44 367 l 40 378 l 41 385 q 56 396 104 426 q 153 456 172 464 q 191 473 202 473 q 212 473 218 465 q 224 457 224 447 q 224 436 209 378 q 147 122 147 76 q 147 55 162 55 q 180 55 221 87 q 262 119 309 179 q 356 239 377 300 q 399 360 416 455 q 421 456 482 470 l 490 463 q 489 460 478 422 q 458 359 439 277 q 419 195 411 146 q 402 97 402 77 q 402 54 417 54 q 426 54 438 61 q 450 69 493 101 l 499 99 l 504 88 l 503 82 q 417 14 390 -1 q 364 -16 350 -16 q 338 -16 331 -6 q 325 5 325 19 q 325 49 366 219 l 363 221 l 327 169 q 308 143 283 114 q 258 85 225 56 q 191 26 164 9 q 137 -8 125 -12 q 112 -17 105 -17 q 91 -17 81 -3 q 70 11 70 39 q 70 76 89 153 q 138 347 138 389 q 138 404 125 404 q 110 404 50 365 z m 301 502 z m 211 -53 z"},"]":{"x_min":0,"x_max":333,"ha":333,"o":"m 8 -100 l 12 -80 l 16 -76 q 90 -72 99 -69 q 104 -67 106 -65 q 109 -62 112 -56 q 116 -48 131 37 q 138 78 165 248 l 199 469 l 219 596 q 228 647 228 659 q 228 678 214 684 q 200 690 124 693 l 120 697 l 123 717 l 128 721 q 186 719 218 719 q 230 719 309 722 l 315 716 q 299 647 267 453 q 234 259 207 71 q 195 -12 188 -100 l 181 -105 q 148 -103 108 -103 q 70 -103 12 -104 z"},"U":{"x_min":0,"x_max":778,"ha":778,"o":"m 707 20 l 704 0 l 699 -4 q 655 0 600 0 q 562 0 530 -4 l 526 0 l 551 121 q 506 67 436 25 q 366 -18 282 -18 q 229 -18 186 3 q 143 23 123 59 q 103 95 103 137 q 103 165 110 212 q 117 259 133 351 q 177 590 177 630 q 177 646 169 652 q 160 657 146 658 q 133 660 99 662 l 95 666 l 97 686 l 101 690 q 156 688 184 688 q 223 688 274 690 l 252 583 q 243 535 228 452 l 203 311 q 192 251 188 219 q 183 188 182 174 q 181 161 181 150 q 181 94 223 66 q 265 38 321 38 q 374 38 438 71 q 501 104 561 176 l 616 514 q 632 613 632 634 q 632 650 621 654 q 609 659 549 662 l 545 666 l 547 686 l 552 690 q 610 687 684 687 q 737 687 795 690 l 798 686 l 796 666 l 792 662 q 743 659 735 656 q 730 654 726 649 q 722 644 717 625 q 705 580 679 438 l 641 209 q 618 64 618 50 q 618 39 622 34 q 627 30 647 28 q 667 25 703 24 z m 428 721 z m 313 -53 z"},"o":{"x_min":0,"x_max":444,"ha":444,"o":"m 19 136 q 19 229 51 306 q 83 383 148 428 q 213 473 275 473 q 332 473 370 439 q 409 404 409 321 q 409 239 372 155 q 336 71 272 28 q 209 -15 148 -15 q 107 -15 77 4 q 47 22 33 55 q 19 87 19 136 z m 97 143 q 97 101 105 76 q 114 52 135 37 q 156 22 187 22 q 219 22 243 39 q 268 56 290 103 q 312 149 322 206 q 332 264 332 312 q 332 356 321 383 q 311 410 291 424 q 271 438 243 438 q 167 438 132 347 q 97 257 97 143 z m 252 502 z m 162 -53 z"},"N":{"x_min":0,"x_max":778,"ha":778,"o":"m 10 -4 l 6 0 l 8 21 l 13 25 q 56 27 67 34 q 78 41 90 78 q 101 116 140 333 l 187 609 q 167 642 147 651 q 127 660 79 661 l 76 665 l 78 686 l 82 690 q 118 687 169 687 q 205 687 239 690 q 244 680 270 632 l 306 568 l 579 104 l 655 555 l 663 614 q 665 628 665 632 q 665 646 656 651 q 646 656 610 659 l 586 661 l 583 665 l 584 686 l 588 690 q 622 688 693 688 q 766 688 796 690 l 799 686 l 798 665 l 794 661 q 734 658 728 647 q 722 637 698 517 l 663 338 l 630 152 q 617 76 606 -13 l 557 -13 q 552 -3 531 36 l 500 90 l 222 562 l 174 298 l 155 173 q 141 81 141 61 q 141 40 152 33 q 164 26 206 26 q 213 26 224 25 l 227 21 l 225 0 l 221 -4 q 168 0 114 0 q 72 0 10 -4 z"},"+":{"x_min":0,"x_max":500,"ha":500,"o":"m 485 284 l 276 284 l 276 74 l 224 74 l 224 284 l 15 284 l 15 333 l 224 333 l 224 543 l 276 543 l 276 333 l 485 333 z"},"G":{"x_min":0,"x_max":722,"ha":722,"o":"m 617 42 l 612 35 q 596 34 552 19 q 485 -4 448 -12 q 412 -20 365 -20 q 262 -20 193 16 q 124 51 91 117 q 59 182 59 266 q 59 359 90 443 q 122 527 186 586 q 249 645 320 673 q 390 701 475 701 q 579 701 674 662 l 676 657 q 659 604 648 518 l 644 514 l 624 514 l 620 518 q 620 554 616 602 q 590 624 541 637 q 492 650 440 650 q 356 650 290 610 q 224 571 186 482 q 147 393 147 289 q 147 230 162 179 q 176 128 212 91 q 249 54 295 40 q 341 26 396 26 q 477 26 532 58 l 550 153 q 558 195 558 209 q 558 222 550 228 q 542 235 511 237 l 445 242 l 441 246 l 444 268 l 449 271 l 466 271 q 552 268 578 268 q 632 268 694 270 l 698 266 l 696 247 l 692 242 q 662 237 654 233 q 646 230 642 225 q 639 219 634 195 l 628 167 q 624 148 619 111 q 613 75 613 59 q 613 51 617 42 z"},"q":{"x_min":0,"x_max":463,"ha":463,"o":"m 218 -281 l 209 -269 q 219 -261 222 -256 q 225 -250 230 -235 q 234 -219 252 -124 l 280 20 q 289 68 310 196 q 264 121 188 54 q 112 -12 73 -12 q 52 -12 41 13 q 30 38 30 75 q 30 124 43 187 q 56 250 73 296 q 90 341 110 368 q 125 387 168 418 q 211 450 236 459 q 261 469 286 469 q 343 469 388 446 l 420 470 l 434 462 q 405 347 370 164 q 334 -19 303 -261 q 253 -271 218 -281 z m 352 396 q 309 420 264 420 q 233 420 214 414 q 195 408 184 397 q 174 387 158 354 q 143 321 128 268 q 114 216 108 169 q 102 123 102 98 q 102 74 109 64 q 116 54 125 54 q 133 54 154 64 q 175 75 210 106 q 244 137 273 175 q 302 212 314 242 q 326 271 337 321 q 348 370 352 396 z"},"d":{"x_min":0,"x_max":500,"ha":500,"o":"m 473 718 l 485 709 q 462 612 433 472 l 375 197 q 361 126 358 97 q 357 88 357 78 q 357 55 371 55 q 389 55 448 102 l 454 100 l 458 89 l 457 83 q 412 43 368 15 q 324 -13 305 -13 q 295 -13 288 -2 q 282 9 282 31 q 282 49 289 85 q 296 122 315 201 l 312 202 q 260 113 187 50 q 114 -13 73 -13 q 58 -13 48 -3 q 38 7 31 35 q 25 62 25 92 q 25 134 39 198 q 52 263 73 310 q 94 357 115 381 q 136 405 170 428 q 205 452 230 462 q 255 472 282 472 q 310 472 364 460 l 389 608 q 393 626 393 639 q 393 650 385 654 q 378 659 358 659 l 317 659 l 313 663 l 315 675 l 319 680 q 410 694 473 718 z m 354 404 q 309 428 260 428 q 229 428 211 421 q 192 415 182 405 q 173 395 157 363 q 142 330 127 283 q 113 236 105 190 q 97 145 97 102 q 97 76 102 65 q 107 55 119 55 q 137 55 171 77 q 223 110 264 166 q 305 221 326 284 q 335 313 354 404 z"},"1":{"x_min":0,"x_max":500,"ha":500,"o":"m 68 -4 l 64 0 l 66 21 l 71 25 q 83 27 106 29 q 137 30 154 35 q 179 41 187 60 q 196 80 205 129 l 286 620 q 209 591 100 539 l 94 543 l 104 602 q 159 612 266 647 q 305 661 367 689 l 381 677 q 359 582 333 436 l 306 276 q 292 199 285 148 q 275 73 275 67 q 275 45 292 38 q 308 31 362 27 q 389 26 401 24 l 404 21 l 402 0 l 398 -4 q 310 0 223 0 q 113 0 68 -4 z"},"5":{"x_min":0,"x_max":500,"ha":500,"o":"m 5 33 q 15 71 32 165 l 37 168 l 54 166 l 57 162 q 54 148 54 132 q 54 72 90 45 q 125 18 177 18 q 229 18 268 48 q 307 78 326 135 q 346 191 346 242 q 346 269 338 294 q 330 320 315 336 q 300 353 275 362 q 251 372 225 372 q 201 372 179 365 q 156 357 142 347 q 127 336 104 314 l 83 324 q 112 450 146 664 l 154 670 q 265 662 344 662 q 407 662 471 666 l 478 657 l 442 600 q 387 595 314 595 q 241 595 177 599 l 127 371 q 185 417 262 417 q 310 417 350 397 q 390 377 410 341 q 431 304 431 254 q 431 201 408 146 q 385 92 349 60 q 313 27 265 5 q 217 -18 158 -18 q 66 -18 5 33 z"}}}
